<?xml version="1.0" standalone="no"?>
<!DOCTYPE svg PUBLIC "-//W3C//DTD SVG 20010904//EN"
 "http://www.w3.org/TR/2001/REC-SVG-20010904/DTD/svg10.dtd">
<svg version="1.0" xmlns="http://www.w3.org/2000/svg"
 width="976.000000pt" height="976.000000pt" viewBox="0 0 976.000000 976.000000"
 preserveAspectRatio="xMidYMid meet">
<metadata>
Created by potrace 1.14, written by Peter Selinger 2001-2017
</metadata>
<g transform="translate(0.000000,976.000000) scale(0.100000,-0.100000)"
fill="#000000" stroke="none">
<path d="M1010 8871 c-443 -445 -814 -824 -824 -844 -11 -20 -20 -62 -22 -92
-6 -119 -69 -49 1058 -1177 565 -565 1032 -1028 1038 -1028 5 0 10 -3 10 -8 0
-17 69 -37 131 -37 68 0 118 18 165 60 31 28 69 104 69 140 1 17 4 36 9 43 4
7 3 12 -3 12 -5 0 -8 8 -6 18 1 9 -3 23 -9 31 -6 8 -10 17 -10 20 5 21 -29 63
-145 180 l-131 131 334 335 c295 295 336 339 350 382 18 56 15 133 -6 183 -25
57 -108 129 -140 122 -5 -1 -8 2 -8 6 0 5 -13 8 -30 7 -16 -1 -30 2 -30 7 0 5
-4 7 -8 4 -5 -3 -23 -8 -41 -11 -19 -3 -48 -12 -65 -19 -19 -8 -175 -156 -364
-345 l-332 -331 -230 230 -230 230 128 128 c149 152 167 180 167 271 0 76 -18
122 -67 170 -49 48 -94 66 -168 66 -91 0 -130 -24 -270 -165 -65 -66 -123
-120 -129 -120 -6 0 -113 101 -236 225 l-225 225 625 625 c344 344 629 625
635 625 6 0 517 -507 1137 -1126 619 -619 1139 -1131 1154 -1138 l29 -12 -651
-653 c-490 -490 -656 -650 -668 -645 -100 42 -163 57 -257 60 -163 6 -298 -37
-429 -136 -34 -26 -569 -554 -1188 -1173 l-1127 -1127 0 -179 c0 -197 -1 -194
70 -223 48 -20 146 -16 193 6 21 11 76 56 123 102 46 46 88 84 94 84 13 0
2210 -2197 2210 -2211 0 -6 -35 -45 -78 -88 -82 -82 -112 -121 -112 -146 0 -8
-4 -15 -9 -15 -4 0 -7 -10 -7 -23 1 -12 -1 -29 -6 -38 -4 -9 -4 -20 0 -24 4
-3 8 -15 8 -26 1 -10 3 -21 4 -24 1 -3 3 -8 5 -12 14 -54 67 -114 124 -141 53
-25 155 -23 208 5 54 29 1682 1655 1705 1704 20 41 37 136 28 159 -6 16 -4 70
3 70 4 0 3 9 -3 20 -8 14 -8 20 0 20 7 0 8 6 0 19 -7 14 -7 22 0 26 7 5 8 11
1 19 -6 7 -6 18 -1 26 4 7 4 24 0 36 -6 14 -5 26 0 29 6 4 7 13 1 24 -6 10 -6
23 -1 31 5 8 6 18 4 22 -3 4 91 8 208 9 117 0 226 3 241 5 60 10 150 84 163
134 4 14 10 30 14 35 3 6 8 28 9 49 1 22 5 44 8 49 4 6 1 7 -7 2 -9 -5 -11 -4
-6 3 10 16 13 93 4 98 -4 3 -3 16 2 29 5 13 6 26 2 29 -8 5 -8 64 1 72 3 4 2
15 -3 25 -7 12 -6 19 2 21 8 3 8 10 -1 26 -6 12 -7 22 -2 22 5 0 7 9 4 20 -5
19 12 27 42 20 6 -1 16 -2 23 -1 19 2 33 2 84 0 27 -1 51 0 54 3 3 4 18 2 34
-2 16 -4 31 -6 34 -3 3 3 27 5 53 4 27 -1 57 -1 68 -1 11 1 32 2 48 3 15 0 27
4 27 9 0 4 7 8 15 8 9 0 28 8 43 18 78 51 106 109 110 232 3 93 3 118 2 271
-1 90 5 112 28 101 20 -9 64 -8 81 2 6 4 11 2 11 -4 0 -6 5 -8 11 -5 15 10 79
12 79 3 0 -3 13 -3 30 2 17 5 30 5 30 2 0 -9 64 -7 79 3 6 3 11 1 11 -5 0 -6
5 -8 11 -4 6 3 31 7 56 9 78 5 146 52 186 129 16 30 22 62 24 120 1 44 5 86 7
93 3 7 1 13 -5 13 -6 0 -8 4 -4 9 5 8 6 91 3 186 0 11 1 36 3 56 3 34 4 36 33
30 17 -4 42 -5 56 -4 48 6 129 5 139 -2 6 -3 11 -2 11 4 0 6 11 7 28 3 15 -4
38 -6 52 -5 14 1 55 4 91 6 37 2 72 8 80 12 9 6 10 3 5 -11 -5 -10 -10 -30
-11 -44 -2 -14 -4 -27 -5 -30 -3 -6 -2 -7 5 -48 2 -16 12 -45 20 -65 10 -25
369 -391 1145 -1167 l1131 -1130 -625 -625 c-344 -344 -630 -625 -636 -625 -6
0 -112 101 -235 225 l-225 225 325 325 c197 197 334 342 348 368 28 53 30 154
5 208 -41 85 -134 140 -229 135 -60 -3 -129 -29 -129 -47 0 -7 -3 -10 -6 -7
-3 4 -151 -140 -329 -318 l-324 -324 -226 225 c-124 123 -225 229 -225 235 0
5 58 68 129 140 142 143 161 175 156 271 -4 93 -56 172 -135 207 -51 22 -149
23 -197 1 -22 -10 -99 -76 -171 -148 l-133 -130 -318 317 c-329 328 -344 342
-383 363 -35 19 -156 17 -198 -4 -113 -56 -161 -169 -125 -294 15 -52 47 -85
1250 -1288 798 -797 1248 -1240 1272 -1252 55 -26 156 -24 210 4 27 14 333
313 848 828 l805 805 0 180 0 180 -1209 1209 c-789 789 -1223 1216 -1248 1227
-40 20 -140 25 -182 10 -15 -5 -21 -5 -17 2 3 6 8 34 11 64 3 29 8 58 10 65 2
7 0 15 -6 19 -7 4 -6 10 1 19 8 10 8 15 0 20 -7 5 -8 11 -1 19 6 6 6 18 2 25
-5 8 -5 27 -1 42 5 17 5 31 -1 35 -6 4 -6 11 1 19 8 10 8 15 0 20 -7 5 -8 11
-1 19 6 7 6 18 1 26 -4 7 -5 23 0 35 4 11 4 29 -1 38 -14 24 5 26 256 29 l220
3 40 27 c69 47 105 89 105 123 0 8 4 15 9 15 4 0 7 10 7 23 -1 12 1 32 5 43 4
12 5 24 2 28 -7 7 -10 96 -3 96 7 0 4 89 -3 97 -4 3 -2 14 3 24 6 10 6 20 1
23 -4 3 -5 24 -1 46 4 22 4 40 -1 40 -4 0 -3 13 2 30 6 16 15 27 20 24 12 -7
99 -11 99 -4 0 7 89 4 97 -3 3 -4 13 -2 23 3 10 5 20 7 23 3 8 -7 97 -10 97
-3 0 3 24 5 54 5 84 1 140 35 192 117 31 48 32 60 33 306 1 129 5 211 10 207
5 -3 12 -1 16 5 4 7 12 7 25 0 13 -7 20 -6 22 2 3 8 9 8 25 -1 12 -6 24 -8 27
-3 5 8 53 9 61 1 3 -3 28 -3 55 1 28 4 53 3 56 -2 3 -5 12 -4 19 2 10 8 15 8
20 0 5 -7 11 -8 19 -1 7 6 17 6 26 1 8 -5 18 -6 22 -4 5 3 21 7 37 9 107 14
190 105 198 218 6 91 5 155 -2 167 -3 5 -1 10 5 10 6 0 8 5 5 10 -7 11 -8 73
-2 153 1 27 -1 51 -5 53 -4 3 -5 10 -2 17 4 11 121 14 149 3 6 -2 30 -1 53 4
23 4 42 4 42 0 0 -4 18 -4 41 0 22 4 56 4 74 0 19 -4 36 -6 38 -4 2 2 21 6 42
9 115 14 198 109 201 230 1 33 -2 65 -7 70 -4 6 -8 15 -9 20 -1 6 -6 20 -11
32 -14 37 -2299 2316 -2344 2338 -54 26 -156 26 -208 1 -25 -12 -474 -455
-1250 -1233 -666 -667 -1215 -1213 -1219 -1213 -5 0 -13 11 -18 24 -5 14 -554
570 -1220 1235 l-1210 1211 -182 -1 -183 -1 -805 -807z m6260 159 l70 -70
-1910 -1910 -1910 -1910 -65 64 c-36 36 -65 68 -65 73 1 4 435 442 965 973
531 531 1387 1389 1903 1907 515 518 938 943 939 943 2 0 34 -31 73 -70z
m1300 -1299 c257 -257 290 -293 262 -289 -18 2 -32 2 -32 -1 0 -3 -15 -6 -33
-7 -38 0 -105 -32 -137 -64 -29 -29 -62 -95 -66 -133 -1 -18 -3 -123 -3 -234
-1 -185 -2 -202 -18 -202 -38 0 -161 -1 -223 -2 -36 0 -72 0 -80 0 -97 3 -137
-2 -185 -25 -71 -34 -128 -113 -129 -179 -1 -19 -4 -35 -8 -35 -4 0 -4 -11 1
-23 5 -13 5 -30 1 -37 -5 -8 -6 -18 -4 -22 6 -9 6 -85 1 -148 -1 -19 1 -45 5
-57 4 -12 3 -25 -2 -28 -5 -3 -6 -16 -1 -28 12 -34 2 -60 -20 -54 -10 3 -19 1
-19 -4 0 -6 -8 -5 -19 1 -14 7 -22 7 -27 -1 -4 -7 -9 -8 -17 0 -7 7 -16 7 -29
0 -12 -6 -18 -6 -18 0 0 7 -9 7 -25 1 -13 -5 -27 -6 -29 -1 -6 9 -49 7 -65 -4
-6 -3 -11 -1 -11 5 0 6 -5 8 -11 5 -16 -10 -79 -12 -79 -2 0 4 -5 5 -11 1 -6
-4 -28 -7 -48 -8 -78 -3 -191 -92 -191 -151 0 -8 -4 -15 -9 -15 -4 0 -8 -10
-7 -22 1 -13 -1 -35 -5 -50 -4 -16 -4 -28 -1 -28 9 0 7 -64 -3 -79 -3 -6 -1
-11 5 -11 8 0 7 -6 -1 -21 -7 -15 -8 -24 0 -32 6 -6 7 -16 1 -28 -7 -12 -6
-20 0 -24 8 -5 8 -11 0 -20 -7 -8 -7 -15 -1 -19 6 -4 6 -18 1 -34 -4 -16 -4
-36 1 -45 6 -10 5 -18 -1 -22 -8 -5 -7 -11 1 -21 12 -15 17 -14 -81 -14 -47 1
-62 0 -82 -1 -7 0 -22 0 -33 1 -11 1 -33 1 -50 1 -49 -1 -89 -1 -131 -1 -104
2 -191 -46 -238 -130 -17 -29 -21 -59 -23 -175 -5 -201 -5 -233 1 -244 4 -5 2
-12 -3 -16 -6 -3 -7 -15 -1 -29 4 -12 5 -28 1 -34 -4 -7 -84 -12 -236 -14
-250 -3 -265 -6 -330 -66 -67 -61 -70 -74 -73 -326 -1 -138 -7 -234 -13 -242
-6 -8 -20 -10 -37 -5 -15 4 -38 6 -52 4 -14 -2 -44 -3 -67 -3 -24 0 -50 0 -58
0 -8 0 -22 0 -30 0 -8 0 -34 0 -57 0 -93 1 -159 -8 -195 -26 -73 -37 -120
-106 -129 -188 -3 -23 -6 -46 -8 -52 -2 -6 0 -17 4 -24 5 -8 4 -22 -1 -31 -5
-10 -5 -20 -1 -23 5 -3 6 -26 2 -50 -4 -25 -3 -51 1 -58 4 -6 3 -20 -2 -29 -5
-10 -5 -20 0 -23 4 -3 5 -23 1 -45 -4 -22 -4 -45 1 -52 12 -19 -2 -41 -22 -36
-11 3 -19 2 -19 -1 0 -4 -16 -7 -35 -7 -19 0 -35 2 -35 5 0 7 -66 4 -79 -5 -6
-3 -11 -1 -11 5 0 8 -6 8 -20 0 -14 -8 -20 -8 -20 0 0 8 -6 8 -20 0 -14 -8
-20 -8 -20 0 0 6 -5 8 -11 5 -15 -10 -79 -12 -79 -3 0 3 -12 3 -27 -1 -16 -4
-38 -6 -50 -5 -13 1 -23 -3 -23 -7 0 -5 -7 -9 -15 -9 -43 0 -135 -92 -135
-135 0 -8 -4 -15 -9 -15 -4 0 -8 -10 -7 -22 1 -13 -1 -35 -5 -50 -4 -16 -4
-28 -1 -28 9 0 7 -64 -3 -79 -3 -6 -1 -11 5 -11 8 0 7 -6 -1 -21 -7 -15 -8
-24 0 -32 6 -6 7 -16 1 -28 -7 -12 -6 -20 0 -24 8 -5 8 -11 0 -20 -6 -7 -7
-16 -2 -19 5 -3 6 -28 2 -55 -4 -30 -2 -55 4 -61 5 -5 8 -10 5 -11 -2 0 -13
-2 -24 -5 -71 -15 -179 0 -145 21 7 4 7 12 0 25 -7 13 -6 20 2 22 8 3 8 10 -1
26 -6 12 -8 22 -4 22 7 0 9 59 3 68 -5 7 -3 60 3 75 3 9 2 17 -4 17 -6 0 -7 5
-4 11 10 15 12 79 3 79 -3 0 -3 14 2 30 5 17 6 30 2 30 -9 0 -7 68 1 76 4 4 2
15 -3 25 -7 12 -6 19 2 21 8 3 8 10 -1 26 -6 12 -8 22 -4 22 7 0 9 59 3 68 -5
7 -3 60 3 75 3 9 2 17 -4 17 -6 0 -7 5 -4 11 10 15 12 79 3 79 -3 0 -3 14 2
30 5 17 5 30 2 30 -9 0 -7 64 3 79 3 6 1 11 -5 11 -7 0 -8 6 -1 19 6 10 8 20
6 22 -2 3 -7 20 -10 38 -3 18 -12 48 -19 66 -8 19 -153 172 -345 364 l-331
331 1910 1910 1910 1910 298 -297 c163 -163 430 -430 592 -592z m-5769 -2571
c24 -13 278 -259 659 -640 l620 -619 0 -68 c0 -37 1 -75 1 -83 1 -8 1 -55 0
-105 0 -49 0 -103 0 -120 0 -16 0 -48 -1 -70 0 -22 -1 -74 -1 -115 0 -75 0
-89 2 -112 0 -13 0 -135 -1 -170 0 -10 0 -26 0 -35 -1 -10 -1 -54 -1 -98 0
-44 -1 -84 -1 -90 0 -5 1 -21 2 -35 1 -14 2 -65 1 -115 0 -49 0 -103 0 -120 0
-16 0 -48 -1 -70 0 -22 0 -72 0 -112 1 -40 -1 -76 -4 -82 -4 -5 -2 -12 4 -16
6 -4 8 -11 5 -16 -4 -5 -7 -28 -7 -51 0 -41 -3 -44 -519 -560 l-519 -518
-1111 1109 -1111 1110 891 888 c489 488 896 893 903 898 51 39 129 45 189 15z"/>
<path d="M2325 4501 c-3 -2 -16 -6 -31 -7 -14 -2 -39 -12 -56 -22 -35 -23
-328 -311 -328 -324 0 -4 -4 -8 -8 -8 -11 0 -202 -191 -202 -201 0 -5 -4 -9
-8 -9 -10 0 -425 -416 -448 -447 -8 -13 -12 -23 -8 -23 3 0 0 -7 -7 -16 -21
-25 -17 -141 6 -189 11 -22 114 -136 240 -263 228 -232 368 -374 1013 -1030
226 -229 398 -396 419 -406 51 -24 119 -29 180 -11 50 15 71 34 312 273 240
239 288 295 299 347 3 11 5 245 6 520 l0 500 -22 45 c-15 29 -106 129 -245
272 -122 124 -311 317 -421 429 -542 556 -536 550 -602 564 -43 9 -84 12 -89
6z m675 -1237 l224 -229 1 -355 2 -355 -104 -102 c-56 -57 -106 -103 -110
-103 -4 0 -98 92 -208 204 -110 112 -382 389 -605 616 -223 226 -406 413 -408
414 -1 2 125 130 280 285 l283 283 210 -215 c115 -118 311 -318 435 -443z"/>
</g>
</svg>
